<svg xmlns="http://www.w3.org/2000/svg" version="1.1" xmlns:xlink="http://www.w3.org/1999/xlink" xmlns:svgjs="http://svgjs.dev/svgjs" width="1500" height="1687" viewBox="0 0 1500 1687"><g transform="matrix(1,0,0,1,0.0002562226959526015,0)"><svg viewBox="0 0 320 360" data-background-color="#ffffff" preserveAspectRatio="xMidYMid meet" height="1687" width="1500" xmlns="http://www.w3.org/2000/svg" xmlns:xlink="http://www.w3.org/1999/xlink"><g id="tight-bounds" transform="matrix(1,0,0,1,0.00005466084189720277,0)"><svg viewBox="0 0 320 360" height="360" width="320"><g><svg></svg></g><g><svg viewBox="0 0 320 360" height="360" width="320"><g><path transform="translate(-119.39272,-98.31927) scale(5.58313,5.58313)" d="M36.7 23.5c0-0.2 0.1-0.4 0.3-0.4 0.2 0 0.4 0.1 0.4 0.4 0.1 0 0.3 0 0.4-0.1 0.4 0 0.8-0.1 1.1 0 0.3 0.1 0.5 0.1 0.8 0.2 0.3 0.1 0.5 0 0.7-0.1 0.4-0.1 0.7-0.3 1.1-0.4 0.2-0.1 0.3-0.1 0.5-0.1 0.2-0.1 0.4-0.1 0.7-0.2 0.5-0.1 1-0.2 1.4-0.4 0.4-0.2 0.8-0.2 1.2-0.3 0.2 0 0.3-0.1 0.5-0.2 0.1 0 0.1-0.1 0.2-0.2 0.2-0.1 0.3-0.2 0.5-0.1 0.1 0.1 0.3 0.1 0.4 0h0.1c0.6 0 1.2-0.1 1.9 0 0.1 0 0.2 0 0.2 0 0.3-0.2 0.7-0.2 1.1-0.2 0.1 0 0.3 0 0.4 0h0.1c0.4 0 0.8 0 1.1 0.1 0.3 0 0.5 0.1 0.8 0.2 0.3 0 0.5 0 0.8 0.1 0.2 0 0.4 0 0.6 0 0.1 0 0.2 0 0.2 0 0.4 0.1 0.8 0.1 1.2 0.1 0.3 0.1 0.6 0.2 1 0.2 0.1 0 0.2 0 0.3 0 0.1 0 0.2 0.1 0.3 0.1l0.1 0.1c0.4 0 0.7 0.2 1.1 0.2 0.1 0 0.3 0 0.4 0.1 0.3 0.2 0.7 0.3 1.1 0.3 0.2 0 0.3 0.1 0.4 0.2 0.3 0.1 0.5 0.2 0.8 0.3 0.2 0.1 0.4 0 0.6 0.1 0.3 0.1 0.7 0.2 1 0.5 0.2 0.2 0.4 0.2 0.7 0.4 0.1 0 0.2 0.1 0.3 0.2 0.3 0.2 0.6 0.4 0.9 0.5 0.1 0 0.2 0.1 0.3 0.1 0.3 0.2 0.6 0.5 1 0.7 0.2 0.1 0.3 0.2 0.5 0.3h0.1c0.3 0.3 0.7 0.5 1 0.8 0.3 0.3 0.5 0.5 0.9 0.7 0 0 0 0 0 0.1 0.1 0.2 0.2 0.3 0.4 0.4 0.2 0.1 0.3 0.2 0.4 0.3 0.3 0.2 0.6 0.4 0.8 0.6 0.1 0.1 0.2 0.2 0.4 0.4 0.1 0.1 0.2 0.2 0.3 0.2 0.4 0.1 0.6 0.4 0.9 0.7 0.2 0.2 0.5 0.5 0.7 0.7 0.1 0.1 0.2 0.3 0.3 0.5 0.2 0.6 0.5 1.2 0.8 1.7 0 0 0 0.1 0.1 0.2v0.1c0.2 0.2 0.3 0.5 0.5 0.7 0.1 0.1 0.1 0.2 0.2 0.3 0.2 0.3 0.3 0.7 0.5 1 0.3 0.5 0.5 1 0.7 1.5v0.1c0.1 0.2 0.2 0.4 0.3 0.7 0 0.2 0.2 0.4 0.3 0.7 0.1 0.5 0.4 1 0.5 1.6 0 0.1 0.1 0.2 0.1 0.4 0.1 0.3 0.2 0.6 0.3 0.9 0 0.1 0.1 0.2 0.2 0.3 0.2 0.2 0.2 0.4 0.2 0.6-0.1 0.4 0 0.8 0.1 1.2 0 0.1 0 0.2 0 0.4 0.1 0.4 0.2 0.9 0.2 1.3 0 0.1 0 0.3 0 0.4 0 0.3 0.1 0.6 0.3 0.9 0 0.1 0.1 0.1 0.1 0.1 0.1 0.1 0.2 0.3 0.3 0.4 0.1 0.1 0.1 0.1 0.2 0.2 0.2 0.2 0.3 0.4 0.3 0.7 0 0.1-0.1 0.3-0.1 0.4 0 0.1 0 0.3 0.1 0.4 0.1 0.1 0.1 0.2 0.1 0.3 0 0.1-0.1 0.2-0.2 0.2v0c-0.1 0.3-0.5 0.4-0.6 0.7-0.1 0.4-0.2 0.8-0.3 1.2-0.1 0.3-0.1 0.5-0.1 0.8 0 0.3-0.1 0.5-0.1 0.8-0.1 0.4-0.2 0.8-0.3 1.2 0 0.2-0.1 0.4-0.1 0.6 0.1 0.1 0.2 0.2 0.3 0.2 0.2 0.2 0.4 0.4 0.6 0.6 0.1 0.1 0.1 0.2 0 0.2-0.1 0.1-0.2 0.1-0.3 0.1-0.1-0.1-0.3-0.2-0.4-0.2-0.1-0.1-0.3-0.2-0.5-0.1 0 0.2-0.1 0.4-0.1 0.5-0.1 0.2-0.2 0.5-0.2 0.7-0.1 0.4-0.3 0.7-0.4 1.1-0.2 0.5-0.4 0.9-0.6 1.3-0.1 0.2-0.2 0.4-0.3 0.6v0c0 0.3-0.3 0.6-0.4 0.9-0.2 0.4-0.4 0.8-0.6 1.3-0.1 0.2-0.2 0.4-0.3 0.5-0.2 0.5-0.4 0.9-0.7 1.3-0.2 0.3-0.4 0.5-0.6 0.6-0.2 0.2-0.4 0.4-0.6 0.6-0.1 0.1-0.2 0.2-0.3 0.3-0.1 0.1-0.1 0.1-0.2 0.2-0.2 0.3-0.5 0.5-0.7 0.8-0.2 0.2-0.3 0.4-0.6 0.6-0.2 0.2-0.4 0.5-0.7 0.6-0.1 0.1-0.2 0.3-0.3 0.4-0.1 0.1-0.2 0.3-0.3 0.4 0 0.2 0.1 0.4 0.1 0.5 0 0.3-0.3 0.4-0.5 0.2-0.3-0.2-0.3-0.2-0.6 0-0.3 0.2-0.6 0.5-1 0.6-0.1 0-0.1 0.1-0.2 0.1-0.2 0.1-0.3 0.3-0.5 0.4-0.2 0.2-0.5 0.3-0.7 0.5-0.1 0.1-0.2 0.1-0.3 0.2-0.3 0.2-0.6 0.3-0.9 0.6-0.1 0.1-0.2 0.1-0.3 0.2 0 0.1 0 0.1 0 0.2 0 0.2-0.2 0.4-0.5 0.3-0.3-0.1-0.5 0-0.8 0-0.3 0.1-0.6 0.3-0.9 0.4-0.1 0-0.2 0.1-0.3 0.2-0.3 0.2-0.6 0.3-0.9 0.4-0.2 0-0.4 0.2-0.6 0.2-0.1 0-0.2 0.1-0.3 0.1h-0.1c-0.4 0.3-0.8 0.5-1.2 0.8-0.1 0-0.1 0.1-0.2 0.2-0.1 0.2-0.2 0.3-0.4 0.3-0.5 0-0.7 0.4-0.6 0.8 0 0.1 0.1 0.2 0.1 0.3 0.1 0.2 0 0.4-0.1 0.5-0.1 0.1-0.4 0.1-0.5-0.1-0.2-0.2-0.3-0.4-0.4-0.7-0.1-0.2-0.3-0.4-0.5-0.5-0.2-0.1-0.4-0.1-0.6 0-0.1 0-0.1 0.1-0.2 0.1-0.2 0.2-0.5 0.3-0.8 0.2-0.1 0-0.3 0-0.3 0.1-0.1 0.1-0.1 0.3 0 0.4 0.2 0.2 0.1 0.4 0.1 0.7 0 0.4-0.3 0.6-0.7 0.4-0.1-0.1-0.2-0.1-0.3-0.2-0.1 0-0.1-0.1-0.1-0.2-0.1-0.1-0.1-0.3-0.2-0.5-0.2 0.1-0.4 0.1-0.6 0.2-0.1 0-0.2 0.1-0.3 0.1-0.3 0-0.4 0-0.5-0.3-0.1-0.3-0.3-0.3-0.5-0.4-0.4-0.1-0.9-0.1-1.3-0.3h-0.1c-0.4-0.3-0.8-0.3-1.3-0.3-0.3 0-0.6 0.1-0.9 0.1-0.3 0-0.5 0.1-0.7 0.3-0.1 0.1-0.2 0.2-0.3 0.2-0.1-0.1-0.1-0.2-0.2-0.3v-0.1c0-0.1-0.1-0.2-0.2-0.1-0.2 0.1-0.4-0.1-0.6-0.2-0.1-0.1-0.3-0.3-0.3-0.5-0.1-0.1-0.2-0.2-0.3-0.2-0.2 0-0.5-0.1-0.7-0.1-0.1 0-0.2 0-0.2-0.1-0.1-0.1-0.2-0.1-0.4-0.1-0.1 0-0.1-0.1-0.2-0.1 0.2 0.2 0.3 0.4 0.4 0.6 0 0.1 0.1 0.1 0.1 0.2 0.1 0.2 0 0.3-0.3 0.3-0.2 0-0.2 0-0.3 0.1 0 0.2 0 0.3 0 0.5 0 0.1 0 0.2-0.2 0.3 0 0-0.1 0-0.1 0.1-0.1 0.1-0.1 0.2 0 0.3 0.3 0.2 0.5 0.3 0.8 0.4 0.3 0 0.3 0.2 0.4 0.4 0.1 0.2 0 0.3-0.1 0.5-0.2 0.2-0.4 0.4-0.6 0.6-0.3 0.1-0.5 0.4-0.8 0.4-0.2 0-0.4-0.1-0.5-0.3-0.1-0.5-0.1-0.9 0.1-1.4 0-0.1 0.1-0.2 0-0.3-0.9 0-0.9-0.2-0.9-0.3 0-0.2 0.1-0.3 0.1-0.5 0.1-0.2 0-0.3-0.3-0.4-0.1 0-0.2 0-0.3 0-0.1 0-0.1-0.1-0.3-0.1 0.2-0.1 0.3-0.1 0.5-0.2-0.1-0.4-0.2-0.7-0.5-0.9-0.1-0.1-0.2-0.2-0.2-0.4 0-0.3-0.2-0.5-0.3-0.7-0.2-0.3-0.6-0.4-0.9-0.4-0.3-0.1-0.5-0.1-0.8-0.2-0.3-0.1-0.6-0.4-0.9-0.5-0.1-0.1-0.2-0.2-0.4-0.3-0.4-0.2-0.7-0.5-1-0.8-0.2-0.1-0.3-0.3-0.5-0.4-0.2-0.2-0.3-0.4-0.5-0.5-0.2-0.2-0.4-0.4-0.7-0.6-0.3-0.2-0.5-0.5-0.8-0.8-0.2-0.3-0.5-0.5-0.8-0.7-0.1 0-0.2 0-0.3 0-0.1 0-0.2 0.1-0.3 0.1-0.3 0.1-0.5 0.3-0.8 0.4 0.1-0.1 0.1-0.1 0-0.3-0.1-0.1-0.2-0.2-0.3-0.2-0.2 0-0.4 0-0.6 0-0.4 0-0.8 0.1-1.2 0.1-0.3 0-0.7 0.1-1 0.2 0.1 0.2 0.1 0.3 0.2 0.5-0.2 0.1-0.4 0.1-0.6 0.1-0.1 0-0.3 0.1-0.4 0.2-0.1 0-0.1 0.1-0.2 0-0.2-0.1-0.4 0-0.6 0.1h-0.1c0 0 0-0.1 0.1-0.1 0.1-0.1 0.2-0.2 0.3-0.3 0.1-0.1 0.2-0.1 0.4-0.2-0.1-0.1-0.1-0.2-0.1-0.2-0.1-0.1-0.2-0.1-0.3 0-0.1 0.1-0.2 0.2-0.3 0.3-0.1 0.1-0.2 0.1-0.3 0-0.1-0.1-0.1-0.2 0-0.3 0-0.1 0.1-0.2 0.2-0.3 0.1-0.1 0.1-0.2 0.2-0.3-0.2-0.2-0.3-0.4-0.5-0.5-0.3-0.2-0.6-0.5-0.8-0.8-0.2-0.4-0.5-0.7-0.9-0.9-0.1-0.1-0.2-0.2-0.3-0.3-0.1-0.1-0.1-0.1-0.2-0.2-0.3 0.1-0.5 0.3-0.8 0.4-0.1 0-0.1 0.1-0.2 0.2-0.1 0.2-0.3 0.2-0.5 0.2-0.1 0-0.2-0.1-0.1-0.2 0.1-0.2 0.2-0.4 0.5-0.3 0 0 0.1 0 0.1-0.1 0.2-0.2 0.4-0.5 0.7-0.7-0.1-0.3-0.3-0.5-0.4-0.7-0.1-0.1-0.1-0.2-0.1-0.4 0-0.1 0-0.1-0.1-0.2 0 0-0.1 0-0.2 0.1-0.1 0.1-0.3 0.2-0.5 0 0-0.1 0-0.2 0.1-0.3l0.1-0.1c0.3-0.1 0.3-0.4 0.3-0.7v-0.1c-0.1-0.2-0.1-0.3 0.1-0.5 0.3-0.2 0.6-0.6 0.7-0.9 0.1-0.2 0.3-0.3 0.5-0.5 0.2-0.2 0.4-0.4 0.5-0.7h0.1c0.4 0.1 0.5-0.2 0.7-0.5 0-0.1 0-0.2 0.1-0.2 0.2-0.2 0.2-0.4 0.1-0.7 0-0.1-0.1-0.3-0.1-0.4 0-0.1 0-0.1-0.1-0.2-0.3-0.2-0.3-0.4 0-0.6 0.2-0.1 0.2-0.3 0.3-0.4 0.1-0.2 0.1-0.4 0.1-0.7-0.1-0.3-0.1-0.7-0.2-1-0.1-0.4-0.2-0.9-0.3-1.3 0-0.1 0-0.1 0-0.2 0-0.3 0-0.5-0.1-0.8-0.1-0.1-0.1-0.3-0.1-0.4-0.1-0.3-0.2-0.5-0.5-0.6-0.3-0.2-0.7-0.3-1-0.5-0.1-0.1-0.2 0-0.3 0.1-0.1 0.2-0.3 0.4-0.4 0.6-0.1 0.1-0.2 0.3-0.3 0.5-0.2 0.2-0.6 0.4-0.9 0.1-0.1-0.2-0.2-0.3 0-0.5 0.2-0.3 0.4-0.6 0.7-0.8 0.1-0.1 0.2-0.3 0.3-0.4 0.1-0.2 0.1-0.4 0.1-0.6-0.1-0.4-0.2-0.8-0.2-1.3 0-0.5 0-0.9 0.1-1.4 0.1-0.2 0.1-0.5 0.2-0.7 0-0.1 0.1-0.3 0.2-0.4 0.2-0.2 0.4-0.4 0.5-0.7 0.1-0.3 0.3-0.6 0.3-0.9 0-0.1 0.1-0.2 0.1-0.3 0-0.1 0.1-0.3 0.1-0.4-0.1-0.3 0-0.5 0.1-0.7 0.1-0.2 0.2-0.5 0.3-0.7 0.2-0.4 0.2-0.9 0.6-1.3 0.1-0.2 0.2-0.4 0.3-0.6 0.1-0.4 0.3-0.7 0.5-1 0.1-0.1 0.1-0.1 0.1-0.2 0.1-0.3 0.3-0.6 0.5-0.9 0.2-0.3 0.2-0.6 0.3-0.9 0-0.1 0-0.2 0.1-0.3 0.3-0.3 0.2-0.7 0.1-1.1-0.2-0.5-0.3-1-0.2-1.5 0-0.1 0-0.2 0.1-0.2 0.1-0.2 0.1-0.3 0.2-0.5v-0.1c0.2-0.2 0.4-0.5 0.7-0.6 0.4-0.2 0.8-0.3 1.3-0.4 0.4 0 0.8-0.2 1.1-0.6 0-0.1 0.1-0.1 0.2-0.2l0.1-0.1c0.1-0.2 0.2-0.3 0.3-0.4 0.2-0.2 0.4-0.5 0.6-0.7 0.2-0.2 0.4-0.5 0.7-0.8l0.1-0.1c0.2-0.2 0.4-0.4 0.6-0.5 0.2-0.2 0.4-0.4 0.6-0.6 0.2-0.2 0.3-0.4 0.5-0.6 0.2-0.1 0.4-0.3 0.6-0.5 0.2-0.2 0.4-0.4 0.5-0.5 0.2-0.2 0.5-0.4 0.7-0.5 0.2-0.1 0.4-0.2 0.5-0.5 0.1-0.3 0.2-0.5 0.3-0.8 0-0.2 0.1-0.4 0.2-0.6 0.1 0 0.2 0 0.4-0.1-0.1-0.1-0.2-0.1-0.2-0.2 0-0.1 0.1-0.2 0.1-0.2 0-0.1 0.1-0.2 0.1-0.3 0 0 0.1 0 0.1-0.1 0 0 0.1 0 0.1-0.1-0.2 0.1-0.3 0-0.4-0.1 0.1 0.1 0.2 0.1 0.4 0.2 0 0 0.1 0 0.1-0.1 0-0.1 0-0.2 0-0.2 0 0-0.1 0-0.2 0-0.1 0-0.2 0.1-0.3 0.1zM54 70.5c0-0.1-0.1-0.1-0.1-0.2-0.1-0.2 0-0.3 0.1-0.4 0.1-0.1 0.2-0.1 0.4-0.1 0.2 0.1 0.3 0.2 0.3 0.4 0 0.1 0 0.3 0 0.4 0.1 0.4 0.1 0.4 0.5 0.4 0.2 0 0.4 0 0.6 0 0.4-0.1 0.8-0.3 1.2-0.4 0.4-0.1 0.8-0.2 1.2-0.3 0.1 0 0.2 0 0.4 0 0.4 0.1 0.7 0 1-0.2 0.1-0.1 0.3-0.1 0.4-0.2 0.2-0.1 0.4-0.1 0.6-0.2 0.5-0.3 1-0.5 1.4-0.8 0.3-0.2 0.6-0.4 0.9-0.6 0.3-0.2 0.6-0.4 0.9-0.6 0.2-0.1 0.5-0.3 0.7-0.5 0.4-0.3 0.7-0.6 1.1-0.8 0.2-0.1 0.3-0.2 0.4-0.3 0.2-0.1 0.3-0.3 0.5-0.4 0.1-0.1 0.2-0.2 0.4-0.3 0.1-0.1 0.1-0.1 0.1-0.2 0.3-0.2 0.6-0.6 0.8-0.9 0.2-0.2 0.4-0.4 0.6-0.7 0.3-0.3 0.5-0.7 0.8-1.1 0.2-0.2 0.4-0.5 0.5-0.7 0.2-0.4 0.4-0.8 0.7-1.1v-0.1c0.2-0.4 0.4-0.8 0.6-1.2 0.3-0.5 0.5-1.1 0.8-1.6 0.1-0.2 0.2-0.4 0.2-0.6 0.2-0.4 0.3-0.8 0.4-1.2 0-0.1 0-0.1 0.1-0.2 0.3-0.6 0.5-1.2 0.6-1.9 0.1-0.4 0.2-0.8 0.3-1.2 0.2-0.6 0.2-1.1 0.3-1.7 0.1-0.4 0.1-0.9 0.1-1.3 0.1-0.6 0.1-1.3 0-1.9 0-0.5-0.1-1.1-0.1-1.6 0-0.5-0.1-0.9-0.2-1.4-0.1-0.5-0.2-0.9-0.3-1.4-0.2-0.4-0.3-0.8-0.4-1.3-0.1-0.4-0.3-0.7-0.3-1.1 0-0.3-0.1-0.6-0.4-0.7-0.3-0.1-0.5-0.2-0.8-0.4-0.6-0.4-0.9-0.9-0.8-1.5 0-0.3 0.1-0.7 0.2-1 0.1-0.3 0.2-0.6 0-0.8-0.1-0.3-0.3-0.5-0.4-0.7-0.2-0.3-0.3-0.5-0.5-0.7-0.2-0.4-0.4-0.8-0.7-1.1-0.4-0.5-0.7-1-1.2-1.4l-0.1-0.1c-0.3-0.4-0.6-0.8-1-1.1-0.2-0.2-0.4-0.4-0.6-0.5-0.1-0.1-0.2-0.2-0.4-0.3-0.3-0.2-0.6-0.3-0.8-0.5-0.3-0.3-0.7-0.5-1-0.7 0 0-0.1 0-0.1-0.1-0.4-0.2-0.7-0.3-1.1-0.5-0.4-0.2-0.8-0.3-1.2-0.3-0.1 0-0.1 0-0.2 0-0.1-0.1-0.3-0.1-0.4-0.1-0.1 0-0.1 0-0.2 0-0.2-0.1-0.5 0-0.7 0-0.4 0.1-0.8 0.1-1.2-0.1-0.5-0.2-0.9-0.4-1.3-0.6-0.3-0.2-0.5-0.4-0.8-0.6-0.6-0.5-1.2-1.1-1.9-1.6 0.1-0.5-0.1-0.6-0.5-0.6-0.2 0-0.4 0.1-0.6 0.2-0.1 0.1-0.1 0.1-0.2 0.2-0.3 0.2-0.5 0.5-0.8 0.7-0.5 0.3-0.7 0.2-1.1 0-0.1-0.1-0.2-0.2-0.3-0.3-0.2-0.2-0.4-0.5-0.5-0.7-0.2-0.4-0.6-0.4-1-0.4-0.2 0-0.5 0.1-0.7 0.1-0.4 0-0.8 0.2-1 0.5-0.2 0.3-0.4 0.6-0.7 0.9-0.1 0.1-0.3 0.2-0.4 0.4-0.2 0.2-0.4 0.2-0.6 0-0.1-0.1-0.2-0.1-0.3-0.2-0.1 0.1-0.2 0.2-0.2 0.3-0.1 0.2-0.2 0.4-0.3 0.7-0.1 0.3-0.3 0.6-0.5 0.8-0.1 0.1-0.1 0.1-0.2 0.2-0.1 0.2-0.4 0.3-0.6 0.3-0.2 0.2-0.4 0.5-0.5 0.7-0.1 0.2-0.2 0.4-0.3 0.7-0.1 0.1-0.1 0.3-0.2 0.4-0.1 0.2-0.1 0.3-0.1 0.5 0.1 0.3-0.1 0.4-0.4 0.5-0.2 0-0.2 0-0.3 0.2 0 0.3 0.1 0.5 0.2 0.8 0.1 0.1 0.2 0.3 0.2 0.4 0 0.2 0.1 0.3 0.3 0.4 0.1 0.1 0.2 0.2 0.3 0.2 0.1 0 0.1 0.1 0.2 0.1 0.1 0.1 0.2 0 0.2-0.1 0.1-0.3 0.2-0.6 0.2-0.9 0.1-0.4 0.1-0.7 0.2-1.1 0.1-0.2 0.2-0.3 0.3-0.4 0 0 0.1 0 0.2 0v0.1c-0.1 0.5-0.3 1.1-0.4 1.6-0.1 0.2-0.1 0.4-0.2 0.6 0 0.1-0.1 0.2-0.2 0.2-0.2 0.1-0.4 0.2-0.6 0.2-0.1 0-0.2 0-0.3 0-0.2-0.1-0.4-0.3-0.6-0.4-0.1-0.1-0.2-0.2-0.3-0.3-0.1-0.2-0.2-0.4-0.3-0.6-0.1-0.2-0.2-0.3-0.4-0.4-0.1-0.1-0.2-0.1-0.3-0.2-0.2-0.2-0.4-0.3-0.7-0.3-0.1 0-0.3 0-0.4 0-0.1 0-0.3 0.1-0.4 0.2-0.2 0.1-0.3 0.1-0.5 0-0.5-0.2-1-0.1-1.5 0.1-0.2 0.1-0.4 0.2-0.6 0.2-0.5 0-0.9 0-1.4 0-0.5 0-0.9-0.1-1.4-0.2-0.2 0-0.4 0-0.6 0-0.4 0.1-0.5 0.4-0.4 0.8 0.1 0.4 0.2 0.9 0.2 1.3 0 0.3 0 0.6 0 0.9 0 0.2 0 0.3 0 0.5 0 0.3-0.1 0.6-0.1 0.9-0.1 0.6-0.4 1.1-0.8 1.5-0.3 0.3-0.7 0.6-1.1 0.7-0.2 0.1-0.4 0.2-0.7 0.3-0.5 0.2-0.9 0.6-1.2 1.1-0.1 0.2-0.2 0.4-0.3 0.6-0.2 0.3-0.3 0.5-0.5 0.8-0.1 0.2-0.3 0.4-0.4 0.6-0.1 0.2-0.3 0.3-0.3 0.5-0.2 0.4-0.3 0.8-0.5 1.2-0.1 0.2-0.1 0.5-0.2 0.7-0.2 0.4-0.2 0.8-0.2 1.3 0 0.1 0 0.2 0 0.4 0 0.5-0.1 1.1-0.1 1.6 0 0.5 0 1 0.1 1.5 0 0.2 0 0.5 0 0.7 0 0.4 0.1 0.9 0.1 1.3 0 0.4 0 0.9 0.2 1.3v0.1c0.1 0.4 0.1 0.8 0.2 1.2 0 0.1 0 0.2 0.1 0.3 0.2 0.6 0.3 1.1 0.5 1.7 0.1 0.4 0.3 0.8 0.4 1.2 0.1 0.4 0.5 0.8 0.6 1.3v0c0.3 0.6 0.6 1.2 1 1.8 0.1 0.2 0.3 0.4 0.4 0.6 0.2 0.3 0.3 0.6 0.5 0.8 0.1 0.2 0.3 0.4 0.4 0.5 0.1 0.2 0.2 0.4 0.4 0.6 0.2 0.2 0.4 0.5 0.6 0.7 0.3 0.5 0.7 0.9 1.1 1.2 0.2 0.2 0.4 0.3 0.6 0.5 0.1 0.1 0.2 0.1 0.2 0.2 0.1 0.1 0.2 0.2 0.4 0.3 0.8 0.4 1.4 1 2.1 1.6 0.3 0.3 0.6 0.6 1 0.8 0.4 0.3 0.7 0.6 1.2 0.7 0 0 0.1 0 0.1 0.1 0.2 0.2 0.5 0.3 0.7 0.4 0.4 0.2 0.9 0.4 1.3 0.6 0.1 0.1 0.3 0.1 0.4 0.2 0.3 0.1 0.6 0.2 0.9 0.3 0.3 0.1 0.5 0.2 0.8 0.2h0.1c0.2 0.1 0.3 0.1 0.5 0 0.1 0 0.2 0 0.2 0.1 0 0.1 0.1 0.1 0.2 0.1 0.1 0 0.2 0 0.4 0 0.1-0.1 0.1-0.2 0.2-0.4 0.1 0.1 0.2 0.1 0.2 0.1 0.1 0.2 0.3 0.2 0.5 0.2h0.1c0.2 0 0.3 0 0.4-0.1 0-0.1 0.2-0.1 0.3-0.1 0.3 0.1 0.6 0.1 0.9 0.2 0.2 0.1 0.5 0.1 0.6-0.1 0.1-0.1 0.2-0.2 0.4-0.1 0.2 0.1 0.3 0.1 0.5 0 0.1 0 0.2 0 0.2 0 0.3 0.1 0.5 0.1 0.8 0.2 0.4 0.1 0.4 0.1 0.7-0.2 0.1-0.1 0.3-0.1 0.4 0 0.1 0.2 0.1 0.3 0.1 0.5 0.1 0 0.1 0 0.2-0.1 0-0.2 0.1-0.2 0.3-0.3 0.1 0.1 0.1 0.1 0.2 0.1 0.2 0.2 0.3 0.2 0.4-0.1 0-0.1 0-0.2 0.1-0.2 0.1 0 0.2 0.1 0.2 0.1 0.1 0.2 0.3 0.3 0.4 0.5 0.2 0.2 0.5 0.2 0.6 0 0.1-0.1 0.2-0.1 0.3-0.1 0-0.1 0-0.2 0-0.3 0.3 0.2 0.2 0.2 0.1 0.2zM37.4 23.8c0.3 0.1 0.5 0.1 0.6-0.1-0.2 0.1-0.4-0.1-0.6 0.1z" fill="#000000" fill-rule="nonzero" stroke="none" stroke-width="1" stroke-linecap="butt" stroke-linejoin="miter" stroke-miterlimit="10" stroke-dasharray="" stroke-dashoffset="0" font-family="none" font-weight="none" font-size="none" text-anchor="none" style="mix-blend-mode: normal" data-fill-palette-color="tertiary"></path></g><g transform="matrix(1,0,0,1,74.42720572926089,90)"><svg viewBox="0 0 171.14558854147822 180" height="180" width="171.14558854147822"><g><svg viewBox="0 0 192 201.93333812763842" height="180" width="171.14558854147822"><g transform="matrix(1,0,0,1,0,131.6557121033027)"><svg viewBox="0 0 192 70.27762602433573" height="70.27762602433573" width="192"><g id="textblocktransform"><svg viewBox="0 0 192 70.27762602433573" height="70.27762602433573" width="192" id="textblock"><g><svg viewBox="0 0 192 70.27762602433573" height="70.27762602433573" width="192"><g transform="matrix(1,0,0,1,0,0)"><svg width="192" viewBox="3.49 -35.5 98.31 35.99" height="70.27762602433573" data-palette-color="#000000"><g class="wordmark-text-0" data-fill-palette-color="primary" id="text-0"><path d="M23.19-8.11L23.19-8.11Q23.19-6.32 22.52-4.76 21.85-3.2 20.68-2.03 19.51-0.85 17.94-0.18 16.38 0.49 14.6 0.49L14.6 0.49 12.11 0.49Q10.33 0.49 8.75-0.18 7.18-0.85 6.01-2.03 4.83-3.2 4.16-4.76 3.49-6.32 3.49-8.11L3.49-8.11 3.49-26.9Q3.49-28.69 4.16-30.25 4.83-31.81 6.01-32.98 7.18-34.16 8.75-34.83 10.33-35.5 12.11-35.5L12.11-35.5 14.6-35.5Q16.38-35.5 17.94-34.83 19.51-34.16 20.68-32.98 21.85-31.81 22.52-30.25 23.19-28.69 23.19-26.9L23.19-26.9 23.19-25.49 20.04-25 20.04-26.9Q20.04-28.08 19.6-29.09 19.17-30.1 18.41-30.86 17.65-31.62 16.64-32.06 15.63-32.5 14.45-32.5L14.45-32.5 12.26-32.5Q11.08-32.5 10.07-32.06 9.06-31.62 8.29-30.86 7.52-30.1 7.08-29.09 6.64-28.08 6.64-26.9L6.64-26.9 6.64-8.11Q6.64-6.93 7.08-5.92 7.52-4.91 8.29-4.14 9.06-3.37 10.07-2.93 11.08-2.49 12.26-2.49L12.26-2.49 14.45-2.49Q15.63-2.49 16.64-2.93 17.65-3.37 18.41-4.14 19.17-4.91 19.6-5.92 20.04-6.93 20.04-8.11L20.04-8.11 20.04-10.01 23.19-9.5 23.19-8.11ZM49.39-8.11L49.39-8.11Q49.39-6.32 48.72-4.76 48.04-3.2 46.87-2.03 45.7-0.85 44.14-0.18 42.58 0.49 40.79 0.49L40.79 0.49 38.3 0.49Q36.52 0.49 34.95-0.18 33.37-0.85 32.2-2.03 31.03-3.2 30.36-4.76 29.68-6.32 29.68-8.11L29.68-8.11 29.68-26.9Q29.68-28.69 30.36-30.25 31.03-31.81 32.2-32.98 33.37-34.16 34.95-34.83 36.52-35.5 38.3-35.5L38.3-35.5 40.79-35.5Q42.58-35.5 44.14-34.83 45.7-34.16 46.87-32.98 48.04-31.81 48.72-30.25 49.39-28.69 49.39-26.9L49.39-26.9 49.39-8.11ZM46.24-8.11L46.24-26.9Q46.24-28.08 45.8-29.09 45.36-30.1 44.6-30.86 43.85-31.62 42.83-32.06 41.82-32.5 40.65-32.5L40.65-32.5 38.45-32.5Q37.28-32.5 36.26-32.06 35.25-31.62 34.48-30.86 33.71-30.1 33.27-29.09 32.83-28.08 32.83-26.9L32.83-26.9 32.83-8.11Q32.83-6.93 33.27-5.92 33.71-4.91 34.48-4.14 35.25-3.37 36.26-2.93 37.28-2.49 38.45-2.49L38.45-2.49 40.65-2.49Q41.82-2.49 42.83-2.93 43.85-3.37 44.6-4.14 45.36-4.91 45.8-5.92 46.24-6.93 46.24-8.11L46.24-8.11ZM76.61-22.05L76.61-22.05Q76.61-20.26 75.93-18.7 75.26-17.14 74.09-15.97 72.92-14.79 71.35-14.12 69.77-13.45 67.99-13.45L67.99-13.45 60.05-13.45 60.05 0 56.9 0 56.9-35.01 67.99-35.01Q69.77-35.01 71.35-34.34 72.92-33.67 74.09-32.5 75.26-31.32 75.93-29.75 76.61-28.17 76.61-26.39L76.61-26.39 76.61-22.05ZM73.46-22.05L73.46-26.39Q73.46-27.56 73.02-28.58 72.58-29.59 71.81-30.36 71.04-31.13 70.03-31.57 69.01-32.01 67.84-32.01L67.84-32.01 60.05-32.01 60.05-16.46 67.84-16.46Q69.01-16.46 70.03-16.89 71.04-17.33 71.81-18.09 72.58-18.85 73.02-19.86 73.46-20.87 73.46-22.05L73.46-22.05ZM101.8-9.16L101.8-8.11Q101.8-6.32 101.08-4.76 100.36-3.2 99.15-2.03 97.94-0.85 96.34-0.18 94.74 0.49 92.96 0.49L92.96 0.49 90.45 0.49Q88.66 0.49 87.07-0.18 85.47-0.85 84.26-2.03 83.05-3.2 82.33-4.76 81.61-6.32 81.61-8.11L81.61-8.11 81.61-9.5 84.76-10.01 84.76-8.11Q84.76-6.93 85.23-5.92 85.71-4.91 86.52-4.14 87.32-3.37 88.38-2.93 89.45-2.49 90.62-2.49L90.62-2.49 92.81-2.49Q93.99-2.49 95.04-2.93 96.09-3.37 96.89-4.14 97.7-4.91 98.17-5.92 98.65-6.93 98.65-8.11L98.65-8.11 98.65-9.16Q98.65-10.96 97.94-12.16 97.23-13.35 96.06-14.2 94.89-15.04 93.41-15.63 91.94-16.21 90.37-16.8 88.81-17.38 87.33-18.09 85.86-18.8 84.68-19.86 83.51-20.92 82.81-22.46 82.1-24 82.1-26.25L82.1-26.25 82.1-26.9Q82.1-28.69 82.77-30.25 83.44-31.81 84.61-32.98 85.78-34.16 87.36-34.83 88.93-35.5 90.72-35.5L90.72-35.5 92.96-35.5Q94.74-35.5 96.31-34.83 97.87-34.16 99.04-32.98 100.21-31.81 100.88-30.25 101.56-28.69 101.56-26.9L101.56-26.9 101.56-26 98.41-25.49 98.41-26.9Q98.41-28.08 97.97-29.09 97.53-30.1 96.77-30.86 96.01-31.62 95-32.06 93.99-32.5 92.81-32.5L92.81-32.5 90.86-32.5Q89.69-32.5 88.68-32.06 87.66-31.62 86.89-30.86 86.13-30.1 85.69-29.09 85.25-28.08 85.25-26.9L85.25-26.9 85.25-26.25Q85.25-24.56 85.95-23.41 86.66-22.27 87.83-21.45 89.01-20.63 90.48-20.03 91.96-19.43 93.52-18.81 95.09-18.19 96.56-17.44 98.04-16.7 99.21-15.61 100.38-14.53 101.09-12.96 101.8-11.4 101.8-9.16L101.8-9.16Z" fill="#000000" data-fill-palette-color="primary"></path></g></svg></g></svg></g></svg></g></svg></g><g transform="matrix(1,0,0,1,50.91072,0)"><svg viewBox="0 0 90.17856 90.17856" height="90.17856" width="90.17856"><g><svg viewBox="0 0 90.17856 90.17856" height="90.17856" width="90.17856"><g transform="matrix(1,0,0,1,26.286359032444206,23.833989568787352)"><svg viewBox="0 0 37.60584193511159 42.5105808624253" height="42.5105808624253" width="37.60584193511159"><g><svg xmlns="http://www.w3.org/2000/svg" xmlns:xlink="http://www.w3.org/1999/xlink" version="1.1" x="0" y="0" viewBox="10.584625199999993 5.4438782 78.83074950000002 89.1122437" style="enable-background:new 0 0 100 100;" xml:space="preserve" height="42.5105808624253" width="37.60584193511159" class="icon-cg-0" data-fill-palette-color="accent" id="cg-0"><g fill="#000000" data-fill-palette-color="accent"><path d="M74.184 48.757c-1.416-0.865-3.049-1.297-4.707-1.332-2.417-0.051-4.743 0.956-6.529 2.585-3.563 3.249-6.416 5.503-12.948 5.503-6.535 0-9.499-2.318-12.896-5.476-1.561-1.452-3.54-2.451-5.666-2.591-1.965-0.13-3.945 0.288-5.622 1.311-5.044 3.08-15.232 12.56-15.231 38.881 0 1.038 0.016 2.039 0.045 3.011 0.065 2.181 1.866 3.907 4.048 3.907h13.589c-0.327-0.146-0.541-0.484-0.541-1.298 0-1.412 0.632-1.412 1.412-1.412 0 0-1.474-0.642-1.551-1.438l-2.383-24.714c-0.095-0.981 0.631-1.781 1.622-1.781h46.626c0.99 0 1.716 0.8 1.622 1.781l-2.383 24.714c-0.077 0.796-1.551 1.438-1.551 1.438 0.78 0 1.412 0.114 1.412 1.412 0 0.798-0.24 1.146-0.605 1.298h13.375c2.182 0 3.983-1.726 4.048-3.906 0.029-0.972 0.045-1.974 0.045-3.012C89.415 61.317 79.228 51.837 74.184 48.757z" fill="#000000" data-fill-palette-color="accent"></path><path d="M50.139 76.072c-1.696 0-3.055 1.304-3.036 2.895 0.019 1.57 1.379 2.827 3.036 2.827 1.657 0 3.016-1.258 3.036-2.827C53.195 77.377 51.836 76.072 50.139 76.072z" fill="#000000" data-fill-palette-color="accent"></path><path d="M36.067 40.263c0.677 0.709 1.408 1.363 2.185 1.962 3.189 2.644 7.282 4.234 11.748 4.235 4.466 0 8.559-1.591 11.747-4.234 0.828-0.639 1.601-1.341 2.315-2.104 7.42 3.22 14.68 1.019 14.679 1.019s-5.159-2.126-6.981-14.748C69.729 12.321 60.454 5.444 50.227 5.444c-10.227 0-19.502 6.877-21.533 20.949-1.822 12.623-6.981 14.749-6.981 14.748S28.761 43.281 36.067 40.263z" fill="#000000" data-fill-palette-color="accent"></path></g></svg></g></svg></g><g id="text-0"><path d="M13.592 28.014v0c0.504 0.19 0.941 0.46 1.311 0.811 0.368 0.357 0.655 0.764 0.862 1.221 0.2 0.454 0.313 0.938 0.338 1.45 0.025 0.512-0.056 1.017-0.243 1.514v0l-0.396 1.053c-0.19 0.504-0.465 0.943-0.825 1.317-0.357 0.368-0.761 0.656-1.211 0.865-0.457 0.207-0.94 0.319-1.45 0.339-0.512 0.025-1.02-0.057-1.524-0.247v0l-7.94-2.993c-0.504-0.19-0.94-0.464-1.308-0.821-0.37-0.351-0.656-0.753-0.856-1.208-0.207-0.457-0.323-0.941-0.348-1.453-0.017-0.516 0.07-1.026 0.26-1.53v0l0.397-1.052c0.188-0.497 0.457-0.931 0.807-1.302 0.357-0.368 0.764-0.655 1.221-0.862 0.45-0.209 0.932-0.326 1.444-0.352 0.51-0.019 1.017 0.066 1.52 0.257v0l0.603 0.227-0.3 1.405-0.804-0.303c-0.332-0.125-0.664-0.181-0.996-0.168-0.329 0.022-0.641 0.097-0.938 0.226-0.292 0.138-0.552 0.324-0.779 0.559-0.236 0.239-0.416 0.524-0.541 0.856v0l-0.35 0.928c-0.125 0.332-0.177 0.662-0.154 0.99 0.013 0.333 0.084 0.647 0.212 0.943 0.135 0.299 0.32 0.561 0.555 0.789 0.239 0.236 0.524 0.416 0.856 0.541v0l7.94 2.993c0.332 0.125 0.665 0.178 1.001 0.159 0.326-0.015 0.639-0.091 0.937-0.226 0.299-0.135 0.566-0.322 0.801-0.561 0.227-0.235 0.403-0.518 0.528-0.85v0l0.35-0.928c0.125-0.332 0.181-0.664 0.168-0.996-0.022-0.329-0.1-0.642-0.235-0.941-0.138-0.292-0.323-0.555-0.555-0.789-0.241-0.229-0.528-0.407-0.86-0.531v0l-0.803-0.303 0.721-1.247z" fill="#000000" data-fill-palette-color="accent"></path><path d="M35.672 11.116v0c0.224 0.49 0.343 0.99 0.359 1.5 0.009 0.513-0.074 1.004-0.249 1.474-0.178 0.463-0.438 0.886-0.781 1.267-0.343 0.381-0.756 0.682-1.24 0.903v0l-1.023 0.467c-0.49 0.224-0.994 0.342-1.513 0.354-0.513 0.009-1.003-0.07-1.469-0.239-0.47-0.175-0.892-0.436-1.268-0.782-0.381-0.343-0.684-0.759-0.907-1.249v0l-3.525-7.719c-0.224-0.49-0.34-0.991-0.35-1.504-0.016-0.51 0.066-0.997 0.244-1.46 0.175-0.47 0.434-0.895 0.777-1.276 0.352-0.378 0.773-0.679 1.263-0.903v0l1.023-0.467c0.484-0.221 0.98-0.339 1.49-0.355 0.513-0.009 1.004 0.074 1.474 0.249 0.467 0.169 0.891 0.425 1.272 0.768 0.375 0.346 0.675 0.763 0.898 1.253v0zM34.379 11.707l-3.524-7.72c-0.147-0.322-0.343-0.596-0.589-0.821-0.249-0.216-0.523-0.383-0.824-0.5-0.304-0.108-0.62-0.159-0.947-0.153-0.336 0.003-0.665 0.079-0.987 0.226v0l-0.902 0.412c-0.322 0.147-0.592 0.345-0.808 0.594-0.225 0.245-0.397 0.518-0.514 0.819-0.115 0.307-0.168 0.624-0.161 0.951 0.003 0.336 0.079 0.665 0.226 0.987v0l3.525 7.719c0.147 0.322 0.347 0.595 0.598 0.817 0.242 0.219 0.517 0.386 0.824 0.5 0.307 0.115 0.628 0.17 0.964 0.167 0.327-0.007 0.651-0.084 0.973-0.231v0l0.902-0.412c0.322-0.147 0.596-0.343 0.822-0.589 0.216-0.249 0.382-0.526 0.496-0.833 0.108-0.304 0.162-0.621 0.162-0.95-0.01-0.333-0.088-0.66-0.236-0.983z" fill="#000000" data-fill-palette-color="accent"></path><path d="M65.872 9.007v0c-0.187 0.498-0.46 0.93-0.817 1.298-0.357 0.368-0.761 0.657-1.211 0.866-0.457 0.207-0.943 0.319-1.459 0.336-0.512 0.026-1.02-0.057-1.524-0.247v0l-3.349-1.261-2.141 5.683-1.329-0.501 5.571-14.792 4.678 1.763c0.504 0.19 0.94 0.463 1.308 0.82 0.377 0.353 0.669 0.758 0.876 1.215 0.2 0.454 0.313 0.937 0.339 1.449 0.023 0.519-0.06 1.03-0.25 1.534v0zM64.542 8.506l0.692-1.837c0.125-0.332 0.178-0.665 0.158-1-0.013-0.333-0.087-0.648-0.222-0.947-0.135-0.299-0.323-0.562-0.565-0.792-0.235-0.227-0.518-0.403-0.85-0.528v0l-3.292-1.239-2.472 6.563 3.292 1.24c0.332 0.125 0.661 0.18 0.987 0.164 0.333-0.013 0.648-0.087 0.946-0.222 0.296-0.129 0.559-0.314 0.789-0.555 0.236-0.239 0.415-0.521 0.537-0.847z" fill="#000000" data-fill-palette-color="accent"></path><path d="M80.681 36.492l-0.427 0.197c-0.489 0.225-0.993 0.337-1.511 0.336-0.516 0.005-1.011-0.086-1.488-0.272-0.467-0.183-0.894-0.451-1.282-0.806-0.385-0.348-0.691-0.766-0.916-1.255v0l-0.474-1.031c-0.225-0.489-0.345-0.993-0.359-1.512-0.017-0.525 0.057-1.024 0.222-1.498 0.168-0.483 0.42-0.921 0.756-1.316 0.339-0.389 0.753-0.696 1.242-0.921v0l0.566-0.261 0.808 1.193-0.78 0.359c-0.322 0.148-0.592 0.351-0.811 0.61-0.213 0.255-0.374 0.54-0.485 0.854-0.108 0.32-0.157 0.654-0.146 1.001 0.016 0.345 0.097 0.676 0.242 0.992v0l0.415 0.9c0.148 0.322 0.348 0.601 0.6 0.839 0.255 0.228 0.538 0.402 0.848 0.521 0.313 0.126 0.636 0.191 0.968 0.196 0.338 0.002 0.669-0.072 0.991-0.22v0l0.427-0.197c0.495-0.228 0.863-0.514 1.102-0.856 0.24-0.343 0.4-0.728 0.481-1.156 0.081-0.427 0.109-0.879 0.085-1.356-0.024-0.477-0.054-0.965-0.09-1.467-0.036-0.501-0.052-1-0.048-1.497 0.007-0.491 0.081-0.964 0.224-1.42 0.146-0.45 0.383-0.871 0.713-1.263 0.333-0.386 0.805-0.72 1.419-1.002v0l0.269-0.124c0.489-0.225 0.99-0.343 1.503-0.354 0.51-0.017 0.997 0.063 1.46 0.239 0.47 0.174 0.896 0.431 1.279 0.773 0.379 0.351 0.681 0.771 0.907 1.26v0l0.423 0.919c0.225 0.489 0.346 0.989 0.364 1.499 0.011 0.513-0.072 1.001-0.249 1.465-0.168 0.467-0.422 0.892-0.764 1.274-0.345 0.376-0.761 0.677-1.25 0.903v0l-0.372 0.171-0.807-1.193 0.585-0.269c0.322-0.148 0.595-0.345 0.819-0.592 0.215-0.249 0.381-0.524 0.498-0.825 0.11-0.298 0.16-0.614 0.149-0.947-0.004-0.336-0.081-0.664-0.229-0.986v0l-0.367-0.799c-0.148-0.322-0.347-0.591-0.597-0.806-0.246-0.224-0.519-0.395-0.82-0.511-0.307-0.114-0.624-0.166-0.951-0.159-0.336 0.004-0.664 0.081-0.987 0.229v0l-0.269 0.124c-0.458 0.211-0.801 0.485-1.028 0.822-0.225 0.344-0.374 0.728-0.449 1.153-0.077 0.418-0.104 0.866-0.08 1.342 0.021 0.486 0.046 0.98 0.076 1.485 0.023 0.507 0.026 1.009 0.006 1.505-0.019 0.497-0.103 0.974-0.252 1.433-0.149 0.459-0.393 0.882-0.731 1.271-0.339 0.389-0.815 0.724-1.428 1.006z" fill="#000000" data-fill-palette-color="accent"></path><path d="M9.924 67.84v0c-0.51 0.193-1.024 0.279-1.543 0.256-0.519-0.022-1.006-0.136-1.463-0.342-0.466-0.21-0.879-0.502-1.239-0.875-0.36-0.374-0.637-0.816-0.83-1.326v0l-0.402-1.061c-0.193-0.51-0.279-1.024-0.257-1.543 0.02-0.525 0.136-1.017 0.348-1.477 0.203-0.463 0.492-0.875 0.866-1.235 0.374-0.36 0.816-0.637 1.326-0.83v0l8.04-3.046c0.51-0.193 1.024-0.279 1.543-0.257 0.519 0.022 1.008 0.139 1.467 0.352 0.463 0.203 0.876 0.495 1.239 0.876 0.36 0.374 0.637 0.816 0.83 1.325v0l0.402 1.061c0.193 0.51 0.279 1.024 0.257 1.543-0.022 0.519-0.138 1.011-0.348 1.477-0.206 0.457-0.496 0.866-0.87 1.226-0.374 0.36-0.816 0.637-1.325 0.83v0l-0.603 0.228-0.721-1.269 0.813-0.307c0.338-0.128 0.626-0.31 0.865-0.547 0.241-0.23 0.429-0.494 0.563-0.792 0.135-0.299 0.211-0.616 0.23-0.951 0.01-0.339-0.048-0.674-0.173-1.006v0l-0.355-0.937c-0.128-0.338-0.307-0.627-0.537-0.868-0.239-0.245-0.507-0.435-0.806-0.57-0.299-0.135-0.616-0.211-0.951-0.23-0.335-0.019-0.672 0.036-1.009 0.164v0l-8.041 3.046c-0.338 0.128-0.626 0.31-0.864 0.546-0.239 0.236-0.428 0.505-0.57 0.806-0.135 0.299-0.21 0.619-0.226 0.961-0.019 0.335 0.036 0.672 0.164 1.009v0l0.354 0.937c0.126 0.331 0.308 0.62 0.547 0.865 0.236 0.239 0.504 0.425 0.802 0.559 0.305 0.132 0.624 0.205 0.957 0.217 0.335 0.019 0.672-0.036 1.009-0.163v0l0.813-0.308 0.291 1.431z" fill="#000000" data-fill-palette-color="accent"></path><path d="M34.1 86.859v0c-0.226 0.496-0.532 0.919-0.916 1.268-0.384 0.349-0.811 0.611-1.28 0.787-0.479 0.179-0.977 0.262-1.497 0.25-0.519-0.012-1.026-0.131-1.522-0.358v0l-1.033-0.471c-0.496-0.226-0.919-0.532-1.268-0.916-0.355-0.387-0.619-0.818-0.791-1.294-0.181-0.472-0.266-0.968-0.254-1.487 0.012-0.519 0.131-1.026 0.357-1.523v0l3.57-7.822c0.226-0.496 0.532-0.919 0.916-1.268 0.384-0.349 0.814-0.61 1.29-0.782 0.472-0.181 0.971-0.265 1.496-0.25 0.519 0.012 1.026 0.131 1.523 0.358v0l1.032 0.471c0.496 0.226 0.919 0.532 1.268 0.916 0.349 0.384 0.613 0.815 0.792 1.294 0.175 0.47 0.257 0.964 0.245 1.483-0.012 0.519-0.131 1.026-0.358 1.522v0zM32.788 86.261l3.57-7.822c0.15-0.329 0.227-0.661 0.23-0.997 0.01-0.333-0.043-0.653-0.157-0.96-0.115-0.307-0.283-0.586-0.506-0.837-0.231-0.248-0.508-0.446-0.831-0.593v0l-0.911-0.416c-0.329-0.15-0.659-0.23-0.992-0.239-0.342-0.006-0.666 0.048-0.974 0.163-0.307 0.115-0.586 0.283-0.837 0.505-0.251 0.222-0.452 0.498-0.602 0.827v0l-3.57 7.822c-0.15 0.329-0.227 0.661-0.23 0.996-0.003 0.336 0.051 0.66 0.162 0.974 0.115 0.307 0.286 0.588 0.515 0.842 0.222 0.251 0.498 0.452 0.827 0.602v0l0.911 0.416c0.322 0.147 0.655 0.224 0.997 0.23 0.336 0.003 0.657-0.052 0.964-0.167 0.31-0.121 0.587-0.294 0.832-0.519 0.251-0.222 0.452-0.498 0.602-0.827z" fill="#000000" data-fill-palette-color="accent"></path><path d="M62.856 77.173v0c0.192 0.51 0.276 1.025 0.252 1.543-0.024 0.519-0.139 1.006-0.346 1.463-0.211 0.465-0.504 0.877-0.88 1.236-0.381 0.362-0.827 0.638-1.337 0.83v0l-3.398 1.275 2.163 5.763-1.35 0.506-5.63-14.999 4.748-1.782c0.51-0.192 1.028-0.277 1.553-0.256 0.519 0.024 1.01 0.141 1.475 0.353 0.456 0.207 0.864 0.498 1.224 0.873 0.362 0.381 0.638 0.827 0.829 1.338v0zM61.507 77.679l-0.697-1.857c-0.127-0.338-0.308-0.627-0.544-0.866-0.229-0.242-0.497-0.432-0.804-0.572-0.298-0.136-0.615-0.213-0.95-0.233-0.341-0.017-0.678 0.036-1.01 0.161v0l-3.341 1.254 2.501 6.662 3.34-1.254c0.332-0.125 0.622-0.303 0.87-0.534 0.239-0.235 0.427-0.502 0.562-0.801 0.142-0.301 0.22-0.618 0.233-0.95 0.02-0.335-0.034-0.672-0.16-1.01z" fill="#000000" data-fill-palette-color="accent"></path><path d="M83.441 59.115l0.436 0.202c0.495 0.229 0.913 0.543 1.254 0.941 0.341 0.399 0.595 0.839 0.762 1.322 0.17 0.492 0.246 1.001 0.229 1.526-0.021 0.531-0.144 1.041-0.371 1.53v0l-0.486 1.048c-0.229 0.495-0.538 0.919-0.927 1.272-0.392 0.359-0.829 0.63-1.312 0.812-0.476 0.185-0.977 0.276-1.501 0.273-0.527 0.003-1.039-0.109-1.534-0.339v0l-0.575-0.266 0.393-1.407 0.788 0.365c0.328 0.152 0.662 0.224 1.004 0.218 0.338-0.001 0.668-0.063 0.987-0.185 0.313-0.125 0.601-0.308 0.862-0.547 0.258-0.233 0.464-0.514 0.616-0.842v0l0.421-0.909c0.149-0.322 0.229-0.656 0.24-1.004 0.011-0.348-0.037-0.682-0.144-1.002-0.11-0.329-0.275-0.623-0.493-0.882-0.218-0.259-0.491-0.464-0.819-0.616v0l-0.436-0.203c-0.501-0.232-0.961-0.325-1.38-0.279-0.423 0.037-0.825 0.166-1.206 0.388-0.384 0.213-0.751 0.486-1.101 0.82-0.356 0.331-0.715 0.675-1.076 1.034-0.361 0.358-0.736 0.696-1.122 1.012-0.381 0.319-0.796 0.574-1.245 0.764-0.44 0.187-0.919 0.28-1.437 0.281-0.518 0-1.09-0.144-1.715-0.434v0l-0.269-0.125c-0.495-0.229-0.916-0.537-1.262-0.923-0.347-0.386-0.605-0.818-0.775-1.294-0.179-0.473-0.259-0.973-0.241-1.498 0.015-0.519 0.137-1.026 0.366-1.521v0l0.434-0.937c0.226-0.489 0.533-0.906 0.919-1.253 0.386-0.347 0.819-0.608 1.299-0.784 0.471-0.173 0.965-0.251 1.484-0.236 0.519 0.015 1.026 0.137 1.521 0.366v0l0.371 0.172-0.393 1.407-0.584-0.271c-0.328-0.152-0.658-0.234-0.991-0.245-0.336-0.005-0.657 0.049-0.965 0.162-0.308 0.113-0.588 0.28-0.841 0.5-0.249 0.23-0.449 0.506-0.597 0.828v0l-0.374 0.807c-0.152 0.328-0.234 0.658-0.245 0.991-0.008 0.342 0.044 0.667 0.157 0.974 0.113 0.308 0.28 0.588 0.5 0.84 0.221 0.253 0.495 0.455 0.824 0.607v0l0.269 0.125c0.47 0.218 0.909 0.301 1.315 0.249 0.407-0.052 0.8-0.185 1.178-0.401 0.381-0.222 0.746-0.499 1.096-0.833 0.356-0.331 0.721-0.673 1.094-1.025 0.374-0.353 0.757-0.686 1.151-1 0.399-0.311 0.822-0.558 1.268-0.742 0.455-0.187 0.943-0.277 1.465-0.267 0.525 0.003 1.096 0.147 1.714 0.434z" fill="#000000" data-fill-palette-color="accent"></path><path d="M0.801 47.157c0-3.38 2.74-6.12 6.12-6.12 3.38 0 6.12 2.74 6.121 6.12 0 3.38-2.74 6.12-6.121 6.12-3.38 0-6.12-2.74-6.12-6.12z" fill="#000000" data-fill-palette-color="accent"></path><path d="M77.212 47.157c0-3.38 2.74-6.12 6.12-6.12 3.38 0 6.12 2.74 6.12 6.12 0 3.38-2.74 6.12-6.12 6.12-3.38 0-6.12-2.74-6.12-6.12z" fill="#000000" data-fill-palette-color="accent"></path></g><g id="text-1"></g></svg></g></svg></g><g></g></svg></g></svg></g></svg></g><defs></defs></svg><rect width="320" height="360" fill="none" stroke="none" visibility="hidden"></rect></g></svg></g></svg>